PathFileType	4	(X/Y/Z)	3_coords_data.trc
DataRate	CameraRate	NumFrames	NumMarkers	Units	OrigDataRate	OrigDataStartFrame	OrigNumFrames
30.0	30.0	5	21	m	30.0	44	65
Frame#	Time	THUMB_TIP	THUMB_IP	THUMB_MCP	THUMB_CMC	INDEX_TIP	INDEX_DIP	INDEX_PIP	INDEX_MCP	MIDDLE_TIP	MIDDLE_DIP	MIDDLE_PIP	MIDDLE_MCP	RING_TIP	RING_DIP	RING_PIP	RING_MCP	PINKY_TIP	PINKY_DIP	PINKY_PIP	PINKY_MCP	WRIST
X1	Y1	Z1	X2	Y2	Z2	X3	Y3	Z3	X4	Y4	Z4	X5	Y5	Z5	X6	Y6	Z6	X7	Y7	Z7	X8	Y8	Z8	X9	Y9	Z9	X10	Y10	Z10	X11	Y11	Z11	X12	Y12	Z12	X13	Y13	Z13	X14	Y14	Z14	X15	Y15	Z15	X16	Y16	Z16	X17	Y17	Z17	X18	Y18	Z18	X19	Y19	Z19	X20	Y20	Z20	X21	Y21	Z21
43	1.4333333333333333	-0.05238190078735352	-0.027851499557495118	0.9428980102539063	-0.061949798583984375	-0.04462630081176758	0.9604169921875	-0.07691490173339843	-0.041393501281738285	0.9877639770507812	-0.08976719665527344	-0.02016200065612793	1.010989990234375	-0.0833301010131836	-0.033646400451660154	0.9731820068359375	-0.07212539672851563	-0.031700599670410154	0.9553280029296874	-0.08303389739990234	-0.03511380004882812	0.9340969848632813	-0.11390599822998047	-0.03980189895629883	0.9593499755859375	-0.08216770172119141	-0.019693099975585937	0.9806220092773438	-0.07222640228271485	-0.014179400444030762	0.9687639770507812	-0.08042009735107422	-0.011488100051879883	0.9419299926757813	-0.1194469985961914	-0.018744300842285157	0.9552420043945312	-0.08809559631347656	-0.006713039875030517	0.9922059936523437	-0.07723149871826172	-0.00061863499879837	0.9815880126953125	-0.08006569671630859	0.007531000137329102	0.95722900390625	-0.11959400177001953	0.001483590006828308	0.9612109985351562	-0.08995130157470703	0.006033120155334473	1.0005599975585937	-0.07754250335693359	0.010979599952697754	0.9912150268554687	-0.08140309906005859	0.019578500747680663	0.9736719970703125	-0.11361499786376954	0.019506900787353516	0.9703109741210938	-0.11786399841308594	-0.003239490032196045	1.0358499755859376
44	1.4666666666666666	-0.050527999877929684	-0.03111739921569824	0.9422670288085937	-0.061689098358154296	-0.0457150993347168	0.9608319702148438	-0.07624960327148438	-0.04129380035400391	0.9877620239257813	-0.0892134017944336	-0.019763200759887696	1.0108099975585938	-0.07775009918212891	-0.030636899948120116	0.9683280029296875	-0.0699697036743164	-0.029625099182128908	0.9502139892578125	-0.08427629852294923	-0.034086101531982424	0.9313709716796875	-0.11288899993896484	-0.03906100082397461	0.9598629760742188	-0.07967669677734375	-0.01762879943847656	0.978718017578125	-0.06919960021972656	-0.01142490005493164	0.9634959716796875	-0.08173670196533203	-0.0109507999420166	0.9381079711914062	-0.11903399658203125	-0.018041200637817383	0.9553790283203125	-0.08601059722900391	-0.0043883900642395016	0.9893829956054687	-0.07554889678955078	0.0022124300003051756	0.9766840209960937	-0.08242019653320312	0.009103690147399902	0.9520050048828125	-0.12079199981689454	0.002251630067825317	0.9617319946289062	-0.08703880310058594	0.00733931016921997	0.9974869995117187	-0.07546060180664063	0.013739500045776367	0.9862670288085937	-0.08382499694824219	0.02196940040588379	0.9693619995117188	-0.11601399993896484	0.020314800262451173	0.9705349731445313	-0.11845899963378906	-0.002862770080566406	1.0365799560546876
45	1.5	-0.04772869873046875	-0.03434920120239258	0.9415670166015625	-0.06053039932250977	-0.04634529876708984	0.9613109741210938	-0.07512979888916016	-0.04101890182495117	0.9878579711914063	-0.0880073013305664	-0.019332799911499023	1.0101400146484374	-0.07023940277099609	-0.027275199890136718	0.9627839965820313	-0.06708529663085938	-0.02667679977416992	0.9423829956054688	-0.08528109741210937	-0.03261119842529297	0.928072998046875	-0.11075900268554688	-0.037806400299072264	0.959906005859375	-0.07291290283203125	-0.012641799926757813	0.974635986328125	-0.06443720245361328	-0.007464210033416748	0.9538109741210937	-0.08313520050048828	-0.009842630386352538	0.9333150024414063	-0.11822299957275391	-0.016931299209594727	0.955947021484375	-0.08115789794921875	-0.00022427000105381	0.9849130249023438	-0.07246040344238282	0.006935229778289795	0.9678090209960938	-0.08570159912109375	0.011034899711608887	0.9452410278320312	-0.12116799926757812	0.003305140018463134	0.9620339965820313	-0.08180539703369141	0.010242899894714356	0.9938060302734375	-0.07422080230712891	0.017842599868774414	0.9794979858398437	-0.08659500122070313	0.024498100280761718	0.9651510009765625	-0.11837300109863282	0.021281999588012697	0.9708590087890625	-0.11797100067138672	-0.0028539500236511232	1.0368299560546874
46	1.5333333333333334	-0.0436254997253418	-0.036442798614501955	0.9416790161132812	-0.05837710189819336	-0.04588959884643555	0.9619569702148437	-0.07359220123291016	-0.0399197998046875	0.9882680053710937	-0.08802439880371093	-0.01813990020751953	1.010989990234375	-0.05987760162353516	-0.02179050064086914	0.9536439819335938	-0.06423960113525391	-0.023553300857543945	0.9333400268554688	-0.08535140228271484	-0.030205799102783204	0.9247659912109375	-0.10709200286865235	-0.03576100158691406	0.9594949951171875	-0.057797698974609374	-0.004108170032501221	0.9644739990234374	-0.060357398986816406	-0.003011980056762695	0.9427440185546875	-0.084068603515625	-0.007760660171508789	0.9286929931640625	-0.11648300170898437	-0.014902000427246093	0.956166015625	-0.07290619659423828	0.006779059886932373	0.9774099731445313	-0.07049500274658203	0.013117799758911133	0.956927001953125	-0.0898134002685547	0.01317360019683838	0.9387020263671875	-0.12069200134277344	0.00487171983718872	0.962198974609375	-0.07164150238037109	0.015553099632263184	0.9858419799804687	-0.0733583984375	0.02431019973754883	0.9716719970703125	-0.08984989929199219	0.02844179916381836	0.96064501953125	-0.11969400024414062	0.02262820053100586	0.9708599853515625	-0.11833000183105469	-0.002505640029907226	1.0376400146484375
47	1.5666666666666667	-0.03984650039672852	-0.03696099853515625	0.9416420288085937	-0.056006099700927736	-0.04391260147094726	0.9623099975585937	-0.07188800048828126	-0.038351600646972656	0.9884390258789062	-0.08814189910888671	-0.01685110092163086	1.0111300048828125	-0.05090739822387695	-0.016289100646972657	0.9392210083007813	-0.06330580139160157	-0.020098899841308592	0.9239639892578125	-0.08577950286865234	-0.0275137996673584	0.9221610107421875	-0.1044739990234375	-0.03327740097045898	0.9590230102539062	-0.046195098876953125	0.0040261101722717275	0.9467219848632813	-0.05888619995117188	0.001546470046043396	0.9297490234375	-0.08585389709472656	-0.005381420135498047	0.9244879760742187	-0.11441400146484375	-0.01259469985961914	0.9565659790039063	-0.06010649871826172	0.01590820026397705	0.96347900390625	-0.06845449829101563	0.019136600494384766	0.9448300170898437	-0.09286759948730469	0.01534529972076416	0.9343599853515625	-0.11903600311279297	0.00719366979598999	0.9628809814453125	-0.06401709747314453	0.024453699111938478	0.9735079956054687	-0.07313849639892578	0.03151020050048828	0.9613880004882812	-0.09256420135498047	0.03254729843139648	0.9553410034179688	-0.11868499755859375	0.024990999221801757	0.972219970703125	-0.11831600189208985	-0.002419919967651367	1.0383199462890624
